<?xml version="1.0" encoding="utf-8"?>
<!-- Generator: Adobe Illustrator 23.0.1, SVG Export Plug-In . SVG Version: 6.00 Build 0)  -->
<svg version="1.1" id="Layer_1" xmlns="http://www.w3.org/2000/svg" xmlns:xlink="http://www.w3.org/1999/xlink" x="0px" y="0px"
	 viewBox="0 0 111.2 111.3" style="enable-background:new 0 0 111.2 111.3;" xml:space="preserve">
<style type="text/css">
	.st0{fill:#FFFFFF;}
</style>
<path class="st0" d="M18.2,48v-4.3L16,47.3h-0.9l-2.1-3.6V48h-1.9v-7.2h2.2l2.3,4.2l2.4-4.2H20l0,7.2H18.2z M26.4,48v-0.9
	c-0.4,0.7-1.1,1-2.2,1c-0.6,0-1-0.1-1.4-0.3c-0.4-0.2-0.7-0.4-0.9-0.8c-0.2-0.3-0.3-0.7-0.3-1.1c0-0.7,0.3-1.2,0.8-1.6
	c0.5-0.4,1.3-0.6,2.3-0.6h1.7c0-0.5-0.1-0.8-0.4-1c-0.3-0.2-0.7-0.4-1.2-0.4c-0.4,0-0.8,0.1-1.1,0.2c-0.4,0.1-0.7,0.3-0.9,0.5
	l-0.7-1.5c0.4-0.3,0.9-0.5,1.4-0.6c0.5-0.2,1.1-0.2,1.7-0.2c1.1,0,2,0.3,2.6,0.8c0.6,0.5,0.9,1.3,0.9,2.4V48H26.4z M26.2,45h-1.4
	c-0.9,0-1.3,0.3-1.3,0.8c0,0.3,0.1,0.5,0.3,0.6c0.2,0.2,0.5,0.2,0.9,0.2c0.4,0,0.7-0.1,0.9-0.2c0.3-0.2,0.5-0.4,0.6-0.7V45z
	 M32.1,40.8v0.8c0.5-0.6,1.3-0.9,2.3-0.9c0.7,0,1.3,0.2,1.8,0.5c0.5,0.3,1,0.7,1.3,1.3c0.3,0.6,0.5,1.2,0.5,1.9s-0.2,1.4-0.5,1.9
	c-0.3,0.6-0.7,1-1.3,1.3c-0.5,0.3-1.2,0.5-1.8,0.5c-0.9,0-1.6-0.3-2.2-0.9v3.3h-2.1v-9.8H32.1z M32.2,44.4c0,0.6,0.2,1.1,0.5,1.4
	s0.8,0.5,1.3,0.5s1-0.2,1.3-0.5c0.3-0.4,0.5-0.8,0.5-1.4c0-0.6-0.2-1.1-0.5-1.4c-0.3-0.4-0.8-0.5-1.3-0.5s-1,0.2-1.3,0.5
	C32.3,43.3,32.2,43.8,32.2,44.4z M41.5,45.3h1.1l1.9,2.7h2.5l-2.7-3.7l2.5-3.4h-2.2l-1.9,2.8h-1.1v-2.8h-2.1V48h2.1V45.3z M54.7,45
	h-5.4c0.1,0.4,0.3,0.8,0.7,1.1c0.4,0.3,0.8,0.4,1.4,0.4c0.4,0,0.7-0.1,1-0.2c0.3-0.1,0.6-0.3,0.8-0.5l1.1,1.2
	c-0.7,0.8-1.7,1.2-3,1.2c-0.8,0-1.5-0.2-2.1-0.5c-0.6-0.3-1.1-0.8-1.4-1.3c-0.3-0.6-0.5-1.2-0.5-1.9c0-0.7,0.2-1.3,0.5-1.9
	s0.8-1,1.4-1.3c0.6-0.3,1.2-0.5,2-0.5c0.7,0,1.3,0.2,1.9,0.5c0.6,0.3,1,0.7,1.3,1.3c0.3,0.6,0.5,1.2,0.5,2
	C54.7,44.5,54.7,44.7,54.7,45z M52.7,43.8c-0.1-0.5-0.3-0.8-0.6-1.1c-0.3-0.3-0.7-0.4-1.2-0.4c-0.5,0-0.9,0.1-1.2,0.4
	c-0.3,0.3-0.5,0.6-0.6,1.1H52.7z M59.7,48v-5.5h2.4v-1.7h-6.9v1.7h2.4V48H59.7z M79.9,15.6C79.9,7,86.9,0,95.6,0s15.6,7,15.6,15.6
	c0,8.6-7,15.6-15.6,15.6S79.9,24.2,79.9,15.6z M87.3,15.6c0,4.6,3.7,8.3,8.3,8.3c4.6,0,8.3-3.7,8.3-8.3s-3.7-8.3-8.3-8.3
	C91,7.3,87.3,11.1,87.3,15.6z M7.3,7.8h16.5v22.9h7.3V0.5H0v30.3h7.3V7.8z M51.9,7.8h12.6v22.9h7.3V0.5H45.9l-6.1,30.3h7.5L51.9,7.8
	z M103.3,80.9h7.3v30.3h-7.3v-2.8c-2.5,1.7-5.5,2.8-8.7,2.8c-8.3,0-15.1-6.8-15.1-15.1s6.8-15.1,15.1-15.1c3.2,0,6.2,1,8.7,2.8V80.9
	z M102.4,96c0-4.3-3.5-7.8-7.8-7.8c-4.3,0-7.8,3.5-7.8,7.8c0,4.3,3.5,7.8,7.8,7.8C98.9,103.8,102.4,100.3,102.4,96z M103.3,40.7h7.3
	V71h-7.3v-2.8c-2.5,1.7-5.5,2.8-8.7,2.8c-8.3,0-15.1-6.8-15.1-15.1s6.8-15.1,15.1-15.1c3.2,0,6.2,1,8.7,2.8V40.7z M102.4,55.8
	c0-4.3-3.5-7.8-7.8-7.8c-4.3,0-7.8,3.5-7.8,7.8s3.5,7.8,7.8,7.8C98.9,63.6,102.4,60.1,102.4,55.8z M71.8,40.7h-7.3v22.9h-2H39.6
	V52.2h-7.3v11.5H7.3V40.7H0V71h32.2h7.3h22.9h9.4H78v-7.3h-6.2V40.7z M33.2,103.8h3.9v7.3h-3.9h-7.3H9.7l0,0.1H6.8l-0.5-0.1H0v-7.3
	h3.6l4.6-22.9h25V103.8z M25.9,103.8V88.3H14.2l-3.1,15.6H25.9z M66.8,80.6l-9.2,11.8h-5.4V80.9h-7.3v11.5v7.3v11.5h7.3V99.7h5.4
	l9.2,11.6H76L64,96l12.1-15.4H66.8z"/>
</svg>
